<svg width="45" height="45" fill="none" xmlns="http://www.w3.org/2000/svg"><g clip-path="url('#clip0_1_779')" fill="#000"><path d="M22.5 45C10.093 45 0 34.907 0 22.5S10.093 0 22.5 0 45 10.093 45 22.5 34.907 45 22.5 45Zm0-41.751c-10.615 0-19.251 8.636-19.251 19.251 0 10.615 8.636 19.251 19.251 19.251 10.615 0 19.251-8.636 19.251-19.251 0-10.615-8.636-19.251-19.251-19.251Z"/><path d="m17.429 15 4.488 14.648h.166L26.571 15H32l-6.771 20H18.77L12 15h5.429Z"/></g><defs><clipPath id="clip0_1_779"><path fill="#fff" d="M0 0h45v45H0z"/></clipPath></defs></svg>