<svg width="24" height="24" fill="none" xmlns="http://www.w3.org/2000/svg"><g id="shopping-cart (1) 1"><g id="Group"><g id="Group_2" fill-rule="evenodd" clip-rule="evenodd" fill="#000"><path id="Vector" d="M2 3a1 1 0 0 1 1-1h2a1 1 0 0 1 .986.836L6.347 5H21a1 1 0 0 1 .949 1.316l-3 9A1 1 0 0 1 18 16H7a1 1 0 0 1-.986-.836L4.153 4H3a1 1 0 0 1-1-1Zm4.68 4 1.167 7h9.432l2.334-7H6.68Z"/><path id="Vector_2" d="M6 20a2 2 0 1 1 4 0 2 2 0 0 1-4 0Z"/><path id="Vector_3" d="M15 20a2 2 0 1 1 4 0 2 2 0 0 1-4 0Z"/></g></g></g></svg>